<svg width="35" height="35" viewBox="0 0 35 35" fill="none" xmlns="http://www.w3.org/2000/svg">
<g clip-path="url(#clip0_12_20)">
<path d="M29.7522 5.08817C28.1476 3.46871 26.2367 2.1848 24.131 1.31125C22.0252 0.437691 19.7666 -0.00803288 17.4869 4.68754e-05C7.93406 4.68754e-05 0.14875 7.78317 0.14 17.3382C0.14 20.3985 0.940625 23.3757 2.45219 26.0116L0 35L9.19625 32.5894C11.7403 33.9739 14.5905 34.6996 17.4869 34.7004H17.4956C27.0506 34.7004 34.8337 26.9172 34.8425 17.3535C34.8447 15.0742 34.3958 12.817 33.5218 10.712C32.6478 8.60692 31.3659 6.69561 29.75 5.08817H29.7522ZM17.4869 31.7647C14.9034 31.7656 12.3675 31.0704 10.1456 29.7522L9.62062 29.4372L4.165 30.8679L5.62187 25.5457L5.28062 24.9966C3.83645 22.7004 3.07267 20.042 3.07781 17.3294C3.07781 9.39754 9.54625 2.92692 17.4956 2.92692C19.3894 2.92352 21.2652 3.29502 23.0147 4.02C24.7643 4.74497 26.353 5.80908 27.6894 7.15098C29.0304 8.48765 30.0935 10.0766 30.8173 11.8262C31.5412 13.5758 31.9115 15.4513 31.9069 17.3447C31.8981 25.305 25.4297 31.7647 17.4869 31.7647ZM25.3947 20.9716C24.9638 20.755 22.8353 19.7072 22.435 19.5585C22.0369 19.4163 21.7459 19.3419 21.4616 19.775C21.1706 20.206 20.3394 21.1882 20.09 21.4704C19.8406 21.7613 19.5825 21.7941 19.1494 21.5797C18.7184 21.361 17.3206 20.906 15.6669 19.425C14.3763 18.2766 13.5122 16.8547 13.2541 16.4238C13.0047 15.9907 13.23 15.7588 13.4466 15.5422C13.6369 15.3497 13.8775 15.0347 14.0941 14.7854C14.3128 14.536 14.385 14.3522 14.5272 14.0635C14.6694 13.7704 14.6016 13.521 14.4944 13.3044C14.385 13.0879 13.5209 10.9507 13.1556 10.0888C12.8056 9.23786 12.4491 9.35598 12.1822 9.34505C11.9328 9.32973 11.6419 9.32973 11.3509 9.32973C11.1312 9.33519 10.915 9.38601 10.7159 9.47899C10.5168 9.57197 10.339 9.70511 10.1937 9.87004C9.79562 10.3032 8.68219 11.351 8.68219 13.4882C8.68219 15.6254 10.2353 17.6794 10.4541 17.9704C10.6684 18.2613 13.5034 22.6341 17.8544 24.5154C18.8825 24.9638 19.6919 25.2285 20.3241 25.4297C21.3631 25.7622 22.3016 25.7119 23.0497 25.6047C23.8809 25.4779 25.6112 24.5547 25.9766 23.5419C26.3353 22.5269 26.3353 21.6607 26.2259 21.4791C26.1187 21.2954 25.8278 21.1882 25.3947 20.9716Z" fill="#3D3D3D"/>
</g>
<defs>
<clipPath id="clip0_12_20">
<rect width="35" height="35" fill="white"/>
</clipPath>
</defs>
</svg>
