<svg width="200" height="68" viewBox="0 0 200 68" fill="none" xmlns="http://www.w3.org/2000/svg">
<path d="M9.55825 65.8259C7.04341 65.8259 4.87851 64.6798 3.07997 62.3956C1.78267 60.7004 0.883351 58.5038 0.374015 55.7979C0.119347 54.4927 0 53.1317 0 51.7151C0 50.1632 0.214849 48.1496 0.636558 45.6666C1.06637 43.1835 2.22834 40.2787 4.12249 36.936C6.05646 33.7923 8.55544 31.3173 11.6196 29.4947C14.6915 27.6802 17.9467 26.2555 21.3768 25.2289C21.4086 25.213 21.4564 25.197 21.52 25.1732C21.5838 25.1493 21.6156 25.0538 21.6156 24.8787C21.4882 19.9682 21.0983 15.0816 20.4456 10.211C20.2307 8.49188 19.8965 6.78087 19.4428 5.08571L19.3951 4.83092L19.1643 3.96354C18.9335 3.14374 18.6788 2.67424 18.3923 2.56276C18.1138 2.50708 17.883 2.35579 17.692 2.12508C17.5089 1.89426 17.4134 1.61563 17.4134 1.30528C17.4134 0.94713 17.5408 0.644767 17.7875 0.389987C18.0342 0.127445 18.3445 0 18.6948 0C19.3075 0 19.8248 0.24679 20.2626 0.724292C20.9788 1.50427 21.6394 3.17558 22.2443 5.73823C23.3028 10.2428 23.9394 16.5063 24.1544 24.5285C28.6907 23.5337 33.267 23.0402 37.8909 23.0402C41.0266 23.0402 43.7882 23.2551 46.1679 23.6929C47.2662 11.4127 48.5635 4.20224 50.0597 2.05343C50.5531 1.43262 51.1023 1.12226 51.6911 1.12226C52.2005 1.12226 52.5826 1.31327 52.8373 1.70326C52.9884 1.91811 53.068 2.16479 53.068 2.42744L53.0441 2.6821C52.9168 3.23925 52.5826 3.58143 52.0413 3.70877C51.3887 4.68773 50.776 7.05938 50.2109 10.8238C49.6458 14.5802 49.1523 19.0609 48.7306 24.25C52.1686 25.1493 54.0788 26.55 54.4688 28.4442V28.6352C54.4688 28.9933 54.3334 29.2958 54.0788 29.5583C53.8241 29.8131 53.4978 29.9403 53.0918 29.9403C52.7178 29.9403 52.4075 29.7653 52.1607 29.4071L51.8981 29.0092C51.6036 28.476 51.2295 28.086 50.7839 27.8155C50.0676 27.4175 49.3116 27.0992 48.5237 26.8843C48.5635 26.9479 48.5873 27.2106 48.5873 27.6801C48.5873 29.5902 48.3167 33.7208 47.7755 40.0557C47.497 43.3108 47.3537 46.7091 47.3537 50.2747C47.3537 53.657 47.489 57.0474 47.7517 60.4378L47.7755 60.8358C47.7755 61.2575 47.7039 61.751 47.5765 62.324C47.4413 62.9049 47.2025 63.3028 46.8682 63.5416C46.7887 63.5894 46.7012 63.6054 46.6055 63.6054C46.3112 63.6054 45.953 63.3108 45.5392 62.7219C45.364 62.4753 45.2288 61.9261 45.1412 61.0903L45.0935 60.6208C44.8627 58.4958 44.7432 56.355 44.7432 54.2142C44.7432 44.6081 45.1412 35.2966 45.9292 26.2795C43.4301 25.8257 40.6764 25.603 37.6761 25.603C37.0075 25.603 35.5511 25.6347 33.3067 25.7064C31.0624 25.778 28.0222 26.2715 24.2021 27.1867V28.1418C24.2021 37.1747 23.3823 44.9503 21.7508 51.4604C19.7293 59.4828 16.4585 64.1624 11.9379 65.4994C11.1261 65.7143 10.3382 65.8259 9.55825 65.8259ZM9.51045 63.1915C11.7309 63.1915 13.6251 62.1728 15.177 60.1353C17.103 57.6125 18.5674 54.0869 19.5623 49.5504C20.3501 45.977 20.8993 42.3638 21.1938 38.7267L21.4006 36.6336C21.6633 34.3654 21.7986 32.5031 21.7986 31.0626C21.7986 29.9723 21.719 28.9217 21.5678 27.911C18.5833 28.691 15.7103 29.9403 12.9645 31.6674C10.2109 33.3944 8.02215 35.5831 6.39065 38.2412C3.86782 42.6264 2.61046 47.1151 2.61046 51.7151C2.61046 52.8374 2.74567 54.2619 3.03217 55.9969C3.31079 57.7318 4.019 59.3395 5.14915 60.8358C5.6983 61.5918 6.46242 62.2364 7.45713 62.7458C8.05409 63.0403 8.73058 63.1915 9.51045 63.1915ZM61.6713 45.5154C59.0768 45.5154 57.3019 44.242 56.3549 41.6952C55.9649 40.4935 55.7739 39.2042 55.7739 37.8194C55.7739 35.4398 56.2356 33.0999 57.1667 30.7998C57.8671 29.0809 58.7027 27.7598 59.6657 26.8365C60.4854 26.1203 61.0903 25.7622 61.4723 25.7542C61.8543 25.7462 62.0851 25.7462 62.1567 25.7462C62.7218 25.7462 63.1595 25.8257 63.4858 26.0008C64.5921 26.5739 65.1413 27.5368 65.1413 28.8898C65.1413 29.248 65.1015 29.646 65.0298 30.0836C64.6717 31.5719 63.9077 32.9169 62.7298 34.1106C61.5599 35.3124 60.1432 35.9809 58.4957 36.1163C58.4241 36.7371 58.3844 37.3419 58.3844 37.9149C58.3844 38.9734 58.5197 39.9444 58.7982 40.8277C59.3314 42.2126 60.1432 42.905 61.2495 42.905H61.5519C64.4727 42.905 67.2343 41.2496 69.8288 37.9389C70.9033 36.5539 71.7389 35.3284 72.3359 34.254C72.9327 33.1796 73.2511 32.6066 73.2829 32.5269C73.5296 32.0176 73.9196 31.7549 74.4449 31.7549C74.6358 31.7549 74.8189 31.8028 75.0099 31.8981C75.5034 32.129 75.75 32.519 75.75 33.0681C75.75 33.2511 75.7182 33.4342 75.6466 33.6253C75.5749 33.8083 75.2009 34.5006 74.5324 35.7024C73.8559 36.8962 72.9009 38.2492 71.6831 39.7534C70.4656 41.2655 69.0091 42.5867 67.3219 43.7167C65.6347 44.8548 63.7564 45.4518 61.6713 45.5154ZM59.0609 33.4103C59.9284 33.1159 60.6764 32.5827 61.2972 31.8028C62.1488 30.7522 62.5786 29.7653 62.5786 28.866C62.5786 28.6033 62.5228 28.4362 62.4195 28.3805C62.3875 28.3486 62.3159 28.3328 62.2045 28.3328C62.0055 28.3328 61.7509 28.468 61.4405 28.7545C60.4456 29.7335 59.6498 31.2854 59.0609 33.4103ZM73.9276 49.0808C73.4977 49.0808 73.1237 48.8739 72.8133 48.4521C72.686 48.2373 72.6223 48.0064 72.6223 47.7756C72.6223 47.2981 72.8372 46.9241 73.2511 46.6614C74.222 46.0486 75.7819 44.2738 77.9387 41.3212C76.4187 39.045 75.1929 36.7609 74.2539 34.4609C73.2272 31.9938 72.7179 30.2269 72.7179 29.1683C72.7179 28.8262 72.8292 28.5318 73.0601 28.285C73.2829 28.0382 73.5774 27.895 73.9514 27.8632C74.2936 27.8632 74.596 27.9826 74.8667 28.2133C75.1293 28.4442 75.2725 28.7545 75.3044 29.1206C75.3839 30.1314 75.8137 31.5719 76.5857 33.4342C77.3657 35.3045 78.3525 37.1907 79.5463 39.1007L81.0187 37.0077C83.4461 33.4581 85.1491 31.2615 86.1281 30.41C86.3907 30.2031 86.6693 30.0995 86.9638 30.0995C86.9956 30.0995 87.1071 30.1075 87.306 30.1235C87.497 30.1393 87.7039 30.2826 87.9188 30.5453C88.1416 30.8078 88.2451 31.0864 88.2451 31.3888C88.2451 31.4206 88.2372 31.5321 88.2212 31.7231C88.2054 31.9221 88.0621 32.137 87.7834 32.3916C87.1706 32.9329 85.6267 34.9702 83.1436 38.4959C82.4433 39.5066 81.7748 40.4537 81.138 41.345C82.9049 43.6292 84.5841 44.7673 86.1759 44.7673C87.5368 44.7673 88.9534 44.0987 90.4178 42.7618C92.2324 41.0825 93.7843 38.8382 95.0577 36.0287C95.4477 35.2647 95.8376 34.5086 96.2435 33.7605L96.4345 33.4103C96.9438 32.312 97.4851 31.7549 98.066 31.7549C98.265 31.7549 98.4798 31.8106 98.7186 31.9221C99.1801 32.1848 99.419 32.5747 99.419 33.0841C99.419 33.2909 99.3633 33.4899 99.2518 33.6969C97.6681 36.6017 96.5618 38.5675 95.9411 39.5942C93.5455 43.5257 90.8874 46.0008 87.9666 47.0275C87.3139 47.2185 86.6773 47.3141 86.0564 47.3141C85.0776 47.3141 84.0191 46.9958 82.8731 46.367C81.727 45.7382 80.6287 44.7673 79.5703 43.4621C77.5488 46.2476 75.8933 48.0542 74.604 48.8978C74.3892 49.0172 74.1664 49.0808 73.9276 49.0808ZM108.651 48.4999C108.102 48.4839 107.545 48.3168 106.972 48.0064C105.714 47.2503 104.958 46.2636 104.719 45.0618C104.481 43.8521 104.361 42.7855 104.361 41.8544C104.361 41.17 104.409 40.4775 104.497 39.7772C104.719 38.098 104.958 36.6734 105.221 35.4876C103.406 38.2252 101.974 40.0557 100.931 40.9949C100.151 41.6872 99.3791 42.0375 98.5993 42.0375C98.1615 42.0375 97.7078 41.9102 97.2223 41.6475C96.2117 41.146 95.7102 40.016 95.7102 38.2412C95.7102 37.1191 95.9728 35.6547 96.4981 33.8321C97.5407 30.5214 98.9255 28.3487 100.653 27.306C101.552 26.7649 102.435 26.4863 103.311 26.4863C104.52 26.4863 105.547 26.9798 106.391 27.9587C106.526 28.1418 106.653 28.3408 106.757 28.5397C107.226 27.8552 107.593 27.3777 107.855 27.107C108.118 26.8365 108.365 26.7013 108.579 26.7013C108.778 26.7172 109.025 26.7967 109.304 26.9559C109.518 27.0515 109.694 27.2106 109.829 27.4335C109.956 27.6562 110.028 27.8712 110.028 28.078C110.028 28.2611 109.988 28.468 109.908 28.7068C108.603 32.0813 107.736 35.5592 107.322 39.1485C107.242 39.3077 107.187 39.9683 107.155 41.1302L107.131 42.2523C107.131 43.3108 107.29 44.2261 107.6 45.006C107.831 45.579 108.221 45.8656 108.762 45.8656C109.542 45.8656 110.29 45.4278 111.007 44.5603C114.023 41.2337 116.434 37.517 118.257 33.4103C118.687 32.2961 119.26 31.739 119.96 31.739C120.326 31.739 120.629 31.9061 120.844 32.2484C121.011 32.5269 121.098 32.8293 121.098 33.1557C121.035 33.7764 120.836 34.3654 120.493 34.9066C118.957 38.0184 117.183 40.9869 115.177 43.8123C114.413 44.9185 113.498 45.969 112.415 46.9718C111.333 47.9746 110.076 48.4839 108.651 48.4999ZM98.5993 39.4272C98.8141 39.4272 99.2916 39.0292 100.024 38.2174C100.939 37.1429 102.443 35.0259 104.544 31.8504C104.688 31.4764 104.751 31.1263 104.751 30.7998C104.751 30.3543 104.624 29.9483 104.361 29.5902C104.067 29.248 103.701 29.0809 103.263 29.0809C102.905 29.0809 102.483 29.2321 102.005 29.5425C100.82 30.2746 99.8169 31.9539 98.9971 34.5802C98.5594 36.0526 98.3445 37.2782 98.3445 38.2412C98.3445 38.488 98.3605 38.7029 98.3923 38.87C98.448 39.1962 98.5196 39.3793 98.5993 39.4272ZM153.88 47.6643L153.347 47.5926L153.975 47.1946L153.88 47.6643ZM118.392 67.2504H118.257C117.183 67.2424 116.649 65.0139 116.641 60.5571C116.649 58.2969 116.753 55.8218 116.976 53.1159C117.191 50.2269 117.334 48.5316 117.413 48.0303C117.835 42.4832 118.416 36.9439 119.164 31.4048C119.244 30.9273 119.308 30.402 119.347 29.8211C119.427 28.9058 119.546 27.9906 119.698 27.0753C119.857 26.1521 120.127 25.3403 120.517 24.624C120.732 24.2659 120.955 24.0749 121.178 24.043C121.409 24.0112 121.56 23.9952 121.64 23.9952C121.918 23.9952 122.181 24.0829 122.427 24.25C122.722 24.4569 122.889 24.7752 122.921 25.205C122.905 25.4995 122.833 25.794 122.706 26.0964L122.682 26.16C122.173 27.6403 121.807 29.1843 121.592 30.7998C121.401 32.1848 121.17 34.5723 120.891 37.9627C120.716 39.7295 120.605 41.528 120.541 43.3427C120.446 46.2078 120.199 49.0092 119.793 51.7629C121.114 43.7565 122.626 37.6762 124.337 33.5059C126.486 28.2532 129.311 25.6267 132.829 25.6267C134.556 25.6267 135.87 26.3033 136.769 27.6562C137.453 28.7625 137.795 30.1791 137.795 31.9221C137.795 32.4473 137.764 33.0203 137.7 33.6253C140.605 32.4156 143.295 31.8028 145.77 31.8028C147.059 31.8028 147.704 32.2643 147.704 33.1796C147.704 33.9276 147.242 34.3414 146.327 34.4131C143.112 34.5723 140.024 35.3443 137.071 36.7211L136.769 37.7717C135.615 41.162 134.134 43.8361 132.312 45.794C130.338 47.8951 128.555 48.9456 126.948 48.9456C125.786 48.9456 124.926 48.4203 124.361 47.3778C124.131 46.9479 124.011 46.3908 124.011 45.7223C124.011 44.823 124.401 43.7645 125.181 42.5548C127.218 39.7534 130.442 37.2067 134.859 34.9066C135.09 33.7684 135.209 32.7578 135.209 31.8743C135.209 30.7124 134.994 29.7653 134.58 29.057C134.222 28.492 133.665 28.2133 132.917 28.2133C129.964 28.2133 127.529 31.357 125.603 37.6364C124.711 40.5254 123.955 43.6053 123.335 46.8683C122.324 52.0574 121.663 55.8695 121.353 58.2969C121.186 59.5703 120.971 60.8438 120.7 62.1171L120.613 62.6264C120.159 65.3164 119.419 66.8604 118.392 67.2504ZM127.019 46.351C127.799 46.2953 128.842 45.603 130.147 44.2818C131.452 42.9607 132.646 41.0347 133.737 38.5198C130.8 40.3105 128.659 42.133 127.322 44.0033C126.844 44.6956 126.606 45.2926 126.606 45.77C126.606 46.16 126.701 46.351 126.908 46.351H127.019ZM157.477 48.4999C156.928 48.4839 156.371 48.3168 155.798 48.0064C154.54 47.2503 153.784 46.2636 153.546 45.0618C153.307 43.8521 153.188 42.7855 153.188 41.8544C153.188 41.17 153.235 40.4775 153.323 39.7772C153.546 38.098 153.784 36.6734 154.047 35.4876C152.232 38.2252 150.8 40.0557 149.757 40.9949C148.977 41.6872 148.205 42.0375 147.425 42.0375C146.988 42.0375 146.534 41.9102 146.048 41.6475C145.038 41.146 144.536 40.016 144.536 38.2412C144.536 37.1191 144.799 35.6547 145.324 33.8321C146.367 30.5214 147.752 28.3487 149.479 27.306C150.378 26.7649 151.261 26.4863 152.137 26.4863C153.347 26.4863 154.373 26.9798 155.217 27.9587C155.352 28.1418 155.479 28.3408 155.583 28.5397C156.052 27.8552 156.419 27.3777 156.681 27.107C156.944 26.8365 157.191 26.7013 157.405 26.7013C157.604 26.7172 157.851 26.7967 158.13 26.9559C158.345 27.0515 158.52 27.2106 158.655 27.4335C158.782 27.6562 158.854 27.8712 158.854 28.078C158.854 28.2611 158.814 28.468 158.735 28.7068C157.429 32.0813 156.562 35.5592 156.148 39.1485C156.068 39.3077 156.013 39.9683 155.981 41.1302L155.957 42.2523C155.957 43.3108 156.116 44.2261 156.427 45.006C156.657 45.579 157.047 45.8656 157.589 45.8656C158.368 45.8656 159.117 45.4278 159.833 44.5603C162.849 41.2337 165.261 37.517 167.083 33.4103C167.513 32.2961 168.086 31.739 168.786 31.739C169.152 31.739 169.455 31.9061 169.67 32.2484C169.837 32.5269 169.924 32.8293 169.924 33.1557C169.861 33.7764 169.662 34.3654 169.32 34.9066C167.784 38.0184 166.009 40.9869 164.003 43.8123C163.239 44.9185 162.324 45.969 161.242 46.9718C160.159 47.9746 158.902 48.4839 157.477 48.4999ZM147.425 39.4272C147.64 39.4272 148.118 39.0292 148.85 38.2174C149.765 37.1429 151.269 35.0259 153.37 31.8504C153.514 31.4764 153.577 31.1263 153.577 30.7998C153.577 30.3543 153.45 29.9483 153.188 29.5902C152.893 29.248 152.527 29.0809 152.089 29.0809C151.731 29.0809 151.309 29.2321 150.832 29.5425C149.646 30.2746 148.643 31.9539 147.823 34.5802C147.386 36.0526 147.171 37.2782 147.171 38.2412C147.171 38.488 147.187 38.7029 147.218 38.87C147.274 39.1962 147.346 39.3793 147.425 39.4272ZM166.638 52.2564C166.128 52.2564 165.722 52.0653 165.436 51.6912C165.149 51.3172 165.006 50.6089 165.006 49.5504C165.006 48.0064 165.245 45.6746 165.73 42.531C166.415 38.0264 167.075 34.5644 167.712 32.1529C167.927 31.5161 168.341 31.1978 168.945 31.1978C169.471 31.1978 169.845 31.3968 170.068 31.7788C170.203 32.0336 170.275 32.2643 170.275 32.4791C170.275 32.6066 170.259 32.7339 170.227 32.8533C169.853 34.1903 169.431 36.1959 168.961 38.862C168.484 41.528 168.11 44.0271 167.823 46.375L168.134 45.77C169.67 42.7697 171.134 40.0637 172.527 37.6602C173.92 35.2488 175.265 33.2831 176.57 31.7549C178.201 29.8767 179.769 28.9376 181.281 28.9376C182.045 28.9376 182.746 29.1843 183.406 29.6857C184.274 30.4178 184.799 31.3173 184.974 32.3916C185.157 33.4581 185.245 34.5086 185.245 35.5354L185.197 37.0712C185.197 39.2202 185.523 40.6527 186.176 41.361C186.534 41.6635 186.94 41.8067 187.386 41.8067C188.038 41.8067 188.715 41.6157 189.415 41.2257C190.991 40.3582 192.32 39.2917 193.418 38.0422C194.509 36.7927 195.543 35.4557 196.506 34.0471L197.74 32.3439C198.066 31.8266 198.448 31.5719 198.886 31.5719C199.133 31.5719 199.347 31.6754 199.538 31.8743C199.849 32.2006 200 32.5827 200 33.0203C199.928 33.6093 199.698 34.1584 199.324 34.6758C197.024 38.464 194.349 41.2973 191.309 43.1596C190.203 43.876 189.001 44.2977 187.696 44.4171H187.553C186.136 44.4171 185.014 43.9077 184.186 42.889C183.351 41.8703 182.833 40.6845 182.634 39.3156C182.523 38.4084 182.467 37.5011 182.467 36.5859V35.5114C182.467 33.1636 182.244 31.9221 181.791 31.7788C181.512 31.7071 181.305 31.6674 181.162 31.6674C180.836 31.6674 180.486 31.7629 180.112 31.9698C178.743 32.7179 177.398 34.3256 176.061 36.7927L175.448 37.8432C173.697 40.6925 172.089 43.6213 170.625 46.6376L170.131 47.8234C169.781 48.8182 169.32 49.7971 168.77 50.7521C168.221 51.7072 167.505 52.2086 166.638 52.2564Z" fill="#E6E7E8"/>
</svg>
